<svg width="0" height="0" xmlns="http://www.w3.org/2000/svg">
  <symbol fill="none" viewBox="0 0 24 24" id="closeIcon" xmlns="http://www.w3.org/2000/svg">
    <path
      d="M19.457 5.957a1 1 0 0 0-1.414-1.414L12 10.586 5.957 4.543a1 1 0 0 0-1.414 1.414L10.586 12l-6.043 6.043a1 1 0 1 0 1.414 1.414L12 13.414l6.043 6.043a1 1 0 0 0 1.414-1.414L13.414 12l6.043-6.043Z"
      fill="currentColor" />
  </symbol>

  <symbol fill="none" viewBox="0 0 24 24" id="menuIcon" xmlns="http://www.w3.org/2000/svg">
    <path fill-rule="evenodd" clip-rule="evenodd"
      d="M3 6a1 1 0 0 1 1-1h16a1 1 0 1 1 0 2H4a1 1 0 0 1-1-1Zm0 6a1 1 0 0 1 1-1h16a1 1 0 1 1 0 2H4a1 1 0 0 1-1-1Zm0 6a1 1 0 0 1 1-1h16a1 1 0 1 1 0 2H4a1 1 0 0 1-1-1Z"
      fill="currentColor" />
  </symbol>
</svg>
